<?xml version="1.0" encoding="UTF-8"?>
<svg id="_レイヤー_1" data-name="レイヤー_1" xmlns="http://www.w3.org/2000/svg" version="1.1" viewBox="0 0 40 61.3">
  <!-- Generator: Adobe Illustrator 29.0.1, SVG Export Plug-In . SVG Version: 2.1.0 Build 192)  -->
  <defs>
    <style>
      .st0 {
        fill: #040000;
      }
    </style>
  </defs>
  <polygon class="st0" points="28.6 42.8 28.6 42.8 28.6 42.8 28.6 42.8"/>
  <path class="st0" d="M40,39.2s0,0,0-.1c0,0,0-.1,0-.2v-6.2s0,0,0-.1c0-2.7-2.2-4.8-4.9-4.8-1,0-2,.4-2.8.9-.9-1.1-2.3-1.9-3.8-1.8-1,0-2,.3-2.7.9-.9-1.1-2.2-1.9-3.8-1.9s-1.2.1-1.8.3v-10.5c0-2.6-2.1-4.7-4.8-4.8-2.7,0-4.9,2.1-4.9,4.8v20.9c0,.2,0,.3,0,.5,0,0,0,0,0,0-1.1.8-2.1,1.7-2.9,2.8-1.2,1.8-1.7,3.9-1.4,6,.5,2.4,1.6,4.6,3.3,6.4.2.2.4.4.6.7,1.2,1.6,2.6,3.1,4.1,4.4,2.8,2.4,6.4,3.8,10.1,3.8h0,0c5.3,0,10.2-2.7,13.2-7,1.3-2,2.1-4.3,2.3-6.7.1-1.2.2-4,.1-8.5ZM35.2,30.9h0c1,0,1.8.8,1.8,1.8v1.7c0,.2,0,.4,0,.5,0,1.6,0,3,0,4.2-.1.9-.8,1.6-1.7,1.6s-1.8-.8-1.8-1.8v-6.2c0-1,.8-1.8,1.8-1.8ZM28.6,30h0c1,0,1.8.8,1.8,1.8v6.2c0,1-.8,1.8-1.8,1.8s-1.8-.8-1.8-1.8v-6.2c0-1,.8-1.8,1.8-1.8ZM21.9,28.9c1,0,1.8.7,1.8,1.7v6.2c0,.3,0,.6-.3.9-.5.8-1.6,1.1-2.4.6h0s0,0,0,0c0,0,0,0,0,0,0-.3,0-.5-.1-.8,0,0,0-.1,0-.2,0-.2-.2-.5-.3-.7,0,0,0,0,0-.1,0-.2-.2-.3-.3-.5v-5.3c0-.9.8-1.7,1.7-1.7ZM13.6,15.7c0-1,.8-1.8,1.8-1.8h0c1,0,1.8.8,1.8,1.8v18.3c0,0-.1,0-.2,0-.2,0-.4,0-.6,0-.1,0-.2,0-.3,0-.2,0-.4,0-.6,0-.1,0-.2,0-.3,0-.2,0-.4,0-.6.2-.1,0-.2,0-.3.1-.2,0-.3.2-.5.3,0,0-.1,0-.2,0V15.7ZM35.1,52.6c-2.4,3.5-6.4,5.6-10.7,5.7h0c-3,0-5.9-1.2-8.2-3.2-1.4-1.2-2.6-2.5-3.7-4-.2-.3-.4-.5-.6-.7-1.3-1.4-2.2-3.1-2.6-4.9-.2-1.3.1-2.7.9-3.8.6-.8,1.4-1.5,2.2-2.1.2-.2.4-.3.7-.5h.1c0-.1,0-.1,0-.1l1.9-1.6c.3-.2.7-.4,1.1-.4.5,0,1,.2,1.3.6,0,0,0,0,0,0,0,0,0,0,0,0,0,0,0,0,0,0,.6.8.5,1.8-.3,2.4-.2.1-2.4,1.9-3.8,3-.5.4-.7,1.1-.5,1.8.3.8,1.2,1.2,2,.9,2.4-.9,6.8,1.1,8.2,4.6.3.8,1.2,1.2,2,.9s1.2-1.2.9-2c-1-2.4-2.8-4.4-5.2-5.6-.6-.3-1.3-.6-2-.8l.4-.3h0s0,0,0,0c.4-.3.7-.7,1-1.1.5.2,1.1.3,1.7.3h0s0,0,0,0c1,0,2-.3,2.8-.9.9,1.2,2.3,1.9,3.8,1.9,1.1,0,2-.3,2.8-.9.9,1.1,2.2,1.9,3.8,1.9h0c.6,0,1.2-.1,1.8-.3,0,2.4,0,3.5-.1,4-.1,1.9-.7,3.7-1.7,5.3Z"/>
  <path class="st0" d="M8.2,7.4c.2.4.6.6,1.1.6.2,0,.4,0,.6-.2.6-.3.8-1.1.5-1.7l-2.5-4.3c-.3-.6-1.1-.8-1.7-.5-.6.3-.8,1.1-.5,1.7l2.5,4.3Z"/>
  <path class="st0" d="M15.4,6.9s0,0,.1,0h0c.7,0,1.2-.5,1.3-1.1l.5-4.4c0-.7-.4-1.3-1.1-1.4-.7,0-1.3.4-1.4,1.1l-.5,4.4s0,0,0,0c0,.7.4,1.3,1.1,1.4Z"/>
  <path class="st0" d="M6.4,12c.3-.6,0-1.4-.6-1.7l-4-1.8c-.6-.3-1.4,0-1.7.6-.3.6,0,1.4.6,1.7l4,1.8c.2,0,.3.1.5.1.5,0,1-.3,1.2-.7Z"/>
</svg>