<?xml version="1.0" encoding="utf-8"?>
<!-- Generator: Adobe Illustrator 19.0.0, SVG Export Plug-In . SVG Version: 6.00 Build 0)  -->
<svg version="1.1" id="レイヤー_1" xmlns="http://www.w3.org/2000/svg" xmlns:xlink="http://www.w3.org/1999/xlink" x="0px"
	 y="0px" viewBox="0 0 35 35" style="enable-background:new 0 0 35 35;" xml:space="preserve">
<style type="text/css">
	.st0{fill:#FFFFFF;}
</style>
<g>
	<path class="st0" d="M17.5,2.2c8.4,0,15.3,6.9,15.3,15.3s-6.9,15.3-15.3,15.3S2.2,25.9,2.2,17.5S9.1,2.2,17.5,2.2 M17.5,0
		C7.8,0,0,7.8,0,17.5C0,27.2,7.8,35,17.5,35C27.2,35,35,27.2,35,17.5C35,7.8,27.2,0,17.5,0L17.5,0z M27.3,23.4l-0.1-0.3
		c-0.2-0.7-1-1.4-1.7-1.6l-2.6-0.7c-0.7-0.2-1.7,0.1-2.2,0.6l-0.9,0.9c-3.4-0.9-6.1-3.6-7-7l0.9-0.9c0.5-0.5,0.8-1.5,0.6-2.2
		l-0.7-2.6c-0.2-0.7-0.9-1.5-1.6-1.7l-0.3-0.1C11,7.5,10,7.7,9.5,8.3L8.1,9.7c-0.2,0.2-0.4,1-0.4,1c0,4.4,1.7,8.7,4.8,11.9
		c3.1,3.1,7.4,4.9,11.8,4.8c0,0,0.8-0.2,1-0.4l1.4-1.4C27.3,25,27.5,24,27.3,23.4L27.3,23.4z M27.3,23.4"/>
</g>
</svg>
