<?xml version="1.0" encoding="utf-8"?>
<!-- Generator: Adobe Illustrator 23.0.1, SVG Export Plug-In . SVG Version: 6.00 Build 0)  -->
<svg version="1.1" id="レイヤー_1" xmlns="http://www.w3.org/2000/svg" xmlns:xlink="http://www.w3.org/1999/xlink" x="0px"
	 y="0px" viewBox="0 0 25.81 25.81" style="enable-background:new 0 0 25.81 25.81;" xml:space="preserve">
<style type="text/css">
	.st0{fill:#FFFFFF;}
</style>
<g>
	<path class="st0" d="M12.9,15.49c1.42,0,2.58-1.16,2.58-2.58c0-0.56-0.18-1.08-0.49-1.51c-0.47-0.65-1.23-1.08-2.09-1.08
		c-0.86,0-1.62,0.42-2.1,1.08c-0.3,0.42-0.49,0.94-0.49,1.51C10.32,14.33,11.48,15.49,12.9,15.49L12.9,15.49z M12.9,15.49"/>
	<path class="st0" d="M18.55,9.74V7.26h-0.32l-2.17,0.01l0.01,2.49L18.55,9.74z M18.55,9.74"/>
	<path class="st0" d="M12.9,0C5.79,0,0,5.79,0,12.91c0,7.12,5.79,12.91,12.9,12.91c7.12,0,12.91-5.79,12.91-12.91
		C25.81,5.79,20.02,0,12.9,0L12.9,0z M20.25,11.4v6.01c0,1.56-1.27,2.84-2.84,2.84H8.4c-1.56,0-2.84-1.27-2.84-2.84V8.4
		c0-1.57,1.27-2.84,2.84-2.84h9.01c1.57,0,2.84,1.27,2.84,2.84V11.4z M20.25,11.4"/>
	<path class="st0" d="M16.92,12.91c0,2.21-1.8,4.02-4.02,4.02c-2.21,0-4.01-1.8-4.01-4.02c0-0.53,0.11-1.04,0.29-1.51H7v6.01
		c0,0.78,0.63,1.4,1.41,1.4h9.01c0.77,0,1.41-0.63,1.41-1.4V11.4h-2.19C16.81,11.86,16.92,12.37,16.92,12.91L16.92,12.91z
		 M16.92,12.91"/>
</g>
</svg>
