<svg enable-background="new 0 0 25.81 25.81" viewBox="0 0 25.81 25.81" xmlns="http://www.w3.org/2000/svg"><path d="m12.9 0c-7.11 0-12.9 5.79-12.9 12.91s5.79 12.91 12.9 12.91c7.12 0 12.91-5.79 12.91-12.91s-5.79-12.91-12.91-12.91zm5.76 9.95c0 .13.01.26.01.39 0 3.92-2.99 8.45-8.45 8.45-1.68 0-3.24-.49-4.55-1.33.23.03.47.04.71.04 1.39 0 2.67-.47 3.69-1.27-1.3-.03-2.4-.88-2.77-2.06.18.03.37.05.56.05.27 0 .53-.04.78-.1-1.36-.27-2.38-1.47-2.38-2.91 0-.01 0-.03 0-.04.4.22.86.36 1.35.37-.81-.54-1.34-1.45-1.34-2.48 0-.54.15-1.05.4-1.49 1.46 1.8 3.66 2.98 6.12 3.1-.05-.22-.08-.44-.08-.68 0-1.64 1.33-2.97 2.97-2.97.86 0 1.63.36 2.17.94.68-.13 1.31-.38 1.89-.72-.22.7-.69 1.28-1.31 1.64.6-.07 1.18-.23 1.71-.47-.39.6-.9 1.12-1.48 1.54zm0 0" fill="#fff"/></svg>