<?xml version="1.0" encoding="utf-8"?>
<!-- Generator: Adobe Illustrator 23.0.1, SVG Export Plug-In . SVG Version: 6.00 Build 0)  -->
<svg version="1.1" id="レイヤー_1" xmlns="http://www.w3.org/2000/svg" xmlns:xlink="http://www.w3.org/1999/xlink" x="0px"
	 y="0px" viewBox="0 0 25.81 25.81" style="enable-background:new 0 0 25.81 25.81;" xml:space="preserve">
<style type="text/css">
	.st0{fill:#FFFFFF;}
</style>
<g>
	<path class="st0" d="M12.9,0C5.79,0,0,5.79,0,12.91c0,7.12,5.79,12.91,12.9,12.91c7.12,0,12.91-5.79,12.91-12.91
		C25.81,5.79,20.02,0,12.9,0L12.9,0z M16.12,13.36h-2.1v7.49H10.9v-7.49H9.43v-2.64h1.48V9c0-1.22,0.58-3.14,3.14-3.14l2.3,0.01
		v2.57h-1.67c-0.27,0-0.66,0.14-0.66,0.72v1.56h2.37L16.12,13.36z M16.12,13.36"/>
</g>
</svg>
