<?xml version="1.0" encoding="utf-8"?>
<!-- Generator: Adobe Illustrator 22.0.1, SVG Export Plug-In . SVG Version: 6.00 Build 0)  -->
<svg version="1.1" id="レイヤー_1" xmlns="http://www.w3.org/2000/svg" xmlns:xlink="http://www.w3.org/1999/xlink" x="0px"
	 y="0px" viewBox="0 0 25.8 25.8" style="enable-background:new 0 0 25.8 25.8;" xml:space="preserve">
<style type="text/css">
	.st0{fill:#FFFFFF;}
	.st1{display:none;stroke:#FFFFFF;stroke-miterlimit:10;}
</style>
<path class="st0" d="M12.9,0C5.8,0,0,5.8,0,12.9C0,20,5.8,25.8,12.9,25.8c7.1,0,12.9-5.8,12.9-12.9C25.8,5.8,20,0,12.9,0z M8.7,20.3
	H5.4v-9.9h3.3V20.3z M7,9L7,9C5.9,9,5.2,8.2,5.2,7.3c0-1,0.7-1.7,1.9-1.7c1.1,0,1.8,0.7,1.8,1.7C8.9,8.2,8.2,9,7,9z M20.6,20.3h-3.3
	V15c0-1.3-0.5-2.2-1.7-2.2c-0.9,0-1.5,0.6-1.7,1.2c-0.1,0.2-0.1,0.5-0.1,0.8v5.6h-3.3c0-9,0-9.9,0-9.9h3.3v1.4
	c0.4-0.7,1.2-1.6,3-1.6c2.2,0,3.8,1.4,3.8,4.5V20.3z"/>
<rect x="-15.5" y="-8.2" class="st1" width="55.2" height="45.8"/>
</svg>
