<?xml version="1.0" encoding="utf-8"?>
<!-- Generator: Adobe Illustrator 23.0.1, SVG Export Plug-In . SVG Version: 6.00 Build 0)  -->
<svg version="1.1" id="レイヤー_1" xmlns="http://www.w3.org/2000/svg" xmlns:xlink="http://www.w3.org/1999/xlink" x="0px"
	 y="0px" width="72.446px" height="21.793px" viewBox="0 0 72.446 21.793" style="enable-background:new 0 0 72.446 21.793;"
	 xml:space="preserve">
<style type="text/css">
	.st0{fill:#FFFFFF;}
</style>
<g>
	<g>
		<polygon class="st0" points="62.157,21.931 0,21.931 0,-0.069 62.157,-0.069 72.446,10.652 		"/>
		<path d="M61.731,0.931l9.346,9.738l-9.361,10.262H1v-20H61.731 M62.157-0.069H0v22h62.157l10.289-11.279L62.157-0.069
			L62.157-0.069z"/>
	</g>
	<g>
		<path d="M8.277,5.757h6.107v1.358H9.902v3.151h3.811v1.359H9.902v4.44H8.277V5.757z"/>
		<path d="M16.201,5.757h1.625v8.937h4.356v1.373h-5.981V5.757z"/>
		<path d="M23.439,10.869c0-3.319,1.835-5.309,4.482-5.309s4.496,1.989,4.496,5.309c0,3.32-1.849,5.379-4.496,5.379
			S23.439,14.189,23.439,10.869z M30.75,10.869c0-2.423-1.12-3.894-2.829-3.894s-2.815,1.471-2.815,3.894
			c0,2.424,1.106,3.964,2.815,3.964S30.75,13.293,30.75,10.869z"/>
		<path d="M33.504,5.757h1.681l0.967,5.364l0.546,3.307h0.056c0.225-1.107,0.463-2.214,0.7-3.307l1.331-5.364h1.429l1.345,5.364
			c0.238,1.079,0.463,2.186,0.7,3.307h0.07c0.168-1.121,0.351-2.228,0.519-3.307l0.98-5.364h1.555l-2.031,10.31h-2.003l-1.387-5.729
			c-0.182-0.812-0.336-1.583-0.477-2.367h-0.069c-0.141,0.784-0.309,1.555-0.477,2.367l-1.358,5.729h-1.962L33.504,5.757z"/>
		<path d="M49.477,15.128c3.04-2.689,4.608-4.692,4.608-6.388c0-1.121-0.603-1.891-1.751-1.891c-0.812,0-1.484,0.518-2.031,1.148
			l-0.91-0.896c0.883-0.953,1.793-1.541,3.138-1.541c1.891,0,3.109,1.232,3.109,3.096c0,1.989-1.582,4.048-3.768,6.135
			c0.532-0.056,1.177-0.098,1.681-0.098h2.577v1.373h-6.653V15.128z"/>
	</g>
</g>
</svg>
