<?xml version="1.0" encoding="utf-8"?>
<!-- Generator: Adobe Illustrator 23.0.1, SVG Export Plug-In . SVG Version: 6.00 Build 0)  -->
<svg version="1.1" id="レイヤー_1" xmlns="http://www.w3.org/2000/svg" xmlns:xlink="http://www.w3.org/1999/xlink" x="0px"
	 y="0px" width="72.446px" height="21.793px" viewBox="0 0 72.446 21.793" style="enable-background:new 0 0 72.446 21.793;"
	 xml:space="preserve">
<style type="text/css">
	.st0{fill:#FFFFFF;}
</style>
<g>
	<g>
		<polygon class="st0" points="62.157,22 0,22 0,0 62.157,0 72.446,10.721 		"/>
		<path d="M61.731,1l9.346,9.738L61.716,21H1V1H61.731 M62.157,0H0v22h62.157l10.289-11.279L62.157,0L62.157,0z"/>
	</g>
	<g>
		<path d="M8.277,5.826h6.107v1.359H9.902v3.151h3.811v1.359H9.902v4.44H8.277V5.826z"/>
		<path d="M16.201,5.826h1.625v8.937h4.356v1.373h-5.981V5.826z"/>
		<path d="M23.439,10.939c0-3.32,1.835-5.309,4.482-5.309s4.496,1.989,4.496,5.309s-1.849,5.379-4.496,5.379
			S23.439,14.259,23.439,10.939z M30.75,10.939c0-2.423-1.12-3.894-2.829-3.894s-2.815,1.471-2.815,3.894s1.106,3.964,2.815,3.964
			S30.75,13.362,30.75,10.939z"/>
		<path d="M33.504,5.826h1.681l0.967,5.365l0.546,3.306h0.056c0.225-1.107,0.463-2.213,0.7-3.306l1.331-5.365h1.429l1.345,5.365
			c0.238,1.079,0.463,2.186,0.7,3.306h0.07c0.168-1.121,0.351-2.228,0.519-3.306l0.98-5.365h1.555l-2.031,10.31h-2.003l-1.387-5.729
			c-0.182-0.812-0.336-1.583-0.477-2.367h-0.069c-0.141,0.784-0.309,1.555-0.477,2.367l-1.358,5.729h-1.962L33.504,5.826z"/>
		<path d="M50.066,14.805h2.255V7.633h-1.849V6.611c0.966-0.182,1.652-0.42,2.241-0.785h1.218v8.979h2.018v1.331h-5.883V14.805z"/>
	</g>
</g>
</svg>
