<?xml version="1.0" encoding="utf-8"?>
<!-- Generator: Adobe Illustrator 23.0.1, SVG Export Plug-In . SVG Version: 6.00 Build 0)  -->
<svg version="1.1" id="レイヤー_1" xmlns="http://www.w3.org/2000/svg" xmlns:xlink="http://www.w3.org/1999/xlink" x="0px"
	 y="0px" width="72.446px" height="21.793px" viewBox="0 0 72.446 21.793" style="enable-background:new 0 0 72.446 21.793;"
	 xml:space="preserve">
<style type="text/css">
	.st0{fill:#FFFFFF;}
</style>
<g>
	<g>
		<polygon class="st0" points="62.157,22 0,22 0,0 62.157,0 72.446,10.721 		"/>
		<path d="M61.731,1l9.346,9.738L61.716,21H1V1H61.731 M62.157,0H0v22h62.157l10.289-11.279L62.157,0L62.157,0z"/>
	</g>
	<g>
		<path d="M8.277,5.826h6.107v1.358H9.902v3.151h3.811v1.359H9.902v4.44H8.277V5.826z"/>
		<path d="M16.201,5.826h1.625v8.937h4.356v1.373h-5.981V5.826z"/>
		<path d="M23.439,10.938c0-3.319,1.835-5.309,4.482-5.309s4.496,1.989,4.496,5.309c0,3.32-1.849,5.379-4.496,5.379
			S23.439,14.259,23.439,10.938z M30.75,10.938c0-2.423-1.12-3.894-2.829-3.894s-2.815,1.471-2.815,3.894
			c0,2.424,1.106,3.964,2.815,3.964S30.75,13.362,30.75,10.938z"/>
		<path d="M33.504,5.826h1.681l0.967,5.364l0.546,3.307h0.056c0.225-1.107,0.463-2.214,0.7-3.307l1.331-5.364h1.429l1.345,5.364
			c0.238,1.079,0.463,2.186,0.7,3.307h0.07c0.168-1.121,0.351-2.228,0.519-3.307l0.98-5.364h1.555l-2.031,10.31h-2.003l-1.387-5.729
			c-0.182-0.812-0.336-1.583-0.477-2.367h-0.069c-0.141,0.784-0.309,1.555-0.477,2.367l-1.358,5.729h-1.962L33.504,5.826z"/>
		<path d="M49.253,14.902l0.784-1.036c0.603,0.616,1.373,1.135,2.438,1.135c1.162,0,1.961-0.645,1.961-1.709
			c0-1.148-0.729-1.891-3.054-1.891V10.21c2.031,0,2.703-0.771,2.703-1.807c0-0.91-0.603-1.484-1.583-1.499
			c-0.798,0.015-1.471,0.406-2.059,0.98l-0.841-1.008c0.812-0.729,1.766-1.247,2.956-1.247c1.849,0,3.151,0.952,3.151,2.661
			c0,1.19-0.687,2.018-1.779,2.424v0.069c1.191,0.295,2.13,1.191,2.13,2.578c0,1.862-1.555,2.955-3.446,2.955
			C50.99,16.317,49.939,15.673,49.253,14.902z"/>
	</g>
</g>
</svg>
