<?xml version="1.0" encoding="utf-8"?>
<!-- Generator: Adobe Illustrator 23.0.1, SVG Export Plug-In . SVG Version: 6.00 Build 0)  -->
<svg version="1.1" id="レイヤー_1" xmlns="http://www.w3.org/2000/svg" xmlns:xlink="http://www.w3.org/1999/xlink" x="0px"
	 y="0px" width="92.179px" height="65.531px" viewBox="0 0 92.179 65.531" style="enable-background:new 0 0 92.179 65.531;"
	 xml:space="preserve">
<g>
	<path d="M74.631,50.61c-0.364,0-0.725-0.13-1.018-0.405L56.517,34.168c-0.595-0.568-0.624-1.512-0.074-2.107
		c0.569-0.595,1.512-0.624,2.107-0.056l17.11,16.036c0.594,0.565,0.624,1.508,0.06,2.103C75.429,50.45,75.036,50.61,74.631,50.61
		L74.631,50.61z M74.631,50.61"/>
	<path d="M17.549,50.61c-0.409,0-0.799-0.16-1.089-0.464c-0.569-0.595-0.539-1.538,0.056-2.103l17.114-16.036
		c0.609-0.569,1.553-0.539,2.103,0.056c0.569,0.594,0.539,1.538-0.056,2.107L18.563,50.205C18.273,50.48,17.909,50.61,17.549,50.61
		L17.549,50.61z M17.549,50.61"/>
	<path d="M84.748,65.531H7.431C3.337,65.531,0,62.21,0,58.1V7.431C0,3.325,3.337,0,7.431,0h77.317c4.091,0,7.431,3.325,7.431,7.431
		V58.1C92.179,62.21,88.839,65.531,84.748,65.531L84.748,65.531z M7.431,2.976c-2.452,0-4.455,2.003-4.455,4.455V58.1
		c0,2.467,2.003,4.455,4.455,4.455h77.317c2.467,0,4.455-1.988,4.455-4.455V7.431c0-2.452-1.988-4.455-4.455-4.455H7.431z
		 M7.431,2.976"/>
	<path d="M46.095,40.232c-1.988,0-3.961-0.65-5.454-1.958L2.467,4.979C1.843,4.429,1.783,3.5,2.322,2.876
		c0.539-0.624,1.479-0.684,2.103-0.145l38.159,33.295c1.902,1.653,5.109,1.653,7.011,0l38.11-33.239
		c0.624-0.535,1.553-0.479,2.107,0.145c0.535,0.609,0.479,1.553-0.145,2.092L51.553,38.259
		C50.045,39.582,48.072,40.232,46.095,40.232L46.095,40.232z M46.095,40.232"/>
</g>
</svg>
