<svg id="图层_1" data-name="图层 1" xmlns="http://www.w3.org/2000/svg" viewBox="0 0 54.53 60"><defs><style>.cls-1{fill:#fff;}.cls-2{fill:#666;}</style></defs><rect class="cls-1" x="0.95" y="33.09" width="52.62" height="25.96" rx="4"/><path class="cls-2" d="M64.36,61H13.64a1.9,1.9,0,0,1-1.9-1.9V35a1.9,1.9,0,0,1,1.9-1.9H64.36a1.9,1.9,0,0,1,1.9,1.9V59.1A1.9,1.9,0,0,1,64.36,61ZM13.64,35V59.1H64.36V35Z" transform="translate(-11.74 -1)"/><rect class="cls-1" x="11.75" y="11.4" width="23.81" height="14.29" rx="4"/><path class="cls-2" d="M46.34,27.64H24.44a1.91,1.91,0,0,1-1.91-1.91V13.35a1.9,1.9,0,0,1,1.91-1.9h21.9a1.91,1.91,0,0,1,1.91,1.9V25.73A1.92,1.92,0,0,1,46.34,27.64ZM24.44,13.35V25.73h21.9V13.35Z" transform="translate(-11.74 -1)"/><circle class="cls-1" cx="20.15" cy="6.19" r="5.24"/><path class="cls-2" d="M31.88,13.38a6.19,6.19,0,1,1,6.19-6.19A6.2,6.2,0,0,1,31.88,13.38Zm0-10.48a4.29,4.29,0,1,0,4.29,4.29A4.29,4.29,0,0,0,31.88,2.9Z" transform="translate(-11.74 -1)"/><circle class="cls-1" cx="28.82" cy="7.86" r="3.57"/><path class="cls-2" d="M40.55,13.38a4.53,4.53,0,1,1,4.53-4.52A4.53,4.53,0,0,1,40.55,13.38Zm0-7.14a2.62,2.62,0,1,0,2.62,2.62A2.62,2.62,0,0,0,40.55,6.24Z" transform="translate(-11.74 -1)"/><polygon class="cls-1" points="35.56 21.62 43.09 25.79 43.09 11.29 35.56 15.46 35.56 21.62"/><path class="cls-2" d="M54.83,27.74a.93.93,0,0,1-.46-.12l-7.54-4.16a1,1,0,0,1-.49-.84V16.46a1,1,0,0,1,.49-.83l7.54-4.17a1,1,0,0,1,.94,0,1,1,0,0,1,.47.83V26.79a1,1,0,0,1-.47.82A.91.91,0,0,1,54.83,27.74Zm-6.58-5.68,5.63,3.11V13.91L48.25,17Z" transform="translate(-11.74 -1)"/><path class="cls-2" d="M26.47,54.21H20.3a.64.64,0,0,1-.64-.64v-13a.64.64,0,0,1,.64-.64h.26a.65.65,0,0,1,.65.64V52.24a.65.65,0,0,0,.65.64h4.61a.65.65,0,0,1,.65.65v0A.65.65,0,0,1,26.47,54.21Z" transform="translate(-11.74 -1)"/><path class="cls-2" d="M26.47,54.45H20.3a.88.88,0,0,1-.88-.88v-13a.88.88,0,0,1,.88-.88h.26a.89.89,0,0,1,.89.88V52.24a.4.4,0,0,0,.41.4h4.61a.89.89,0,0,1,.89.89v0A.89.89,0,0,1,26.47,54.45ZM20.3,40.16a.42.42,0,0,0-.41.41v13a.42.42,0,0,0,.41.41h6.17a.41.41,0,0,0,.41-.41v0a.41.41,0,0,0-.41-.41H21.86a.89.89,0,0,1-.89-.88V40.57a.41.41,0,0,0-.41-.41Z" transform="translate(-11.74 -1)"/><path class="cls-2" d="M31.31,39.93h.27a.64.64,0,0,1,.64.64v13a.64.64,0,0,1-.64.64h-.27a.64.64,0,0,1-.64-.64v-13A.64.64,0,0,1,31.31,39.93Z" transform="translate(-11.74 -1)"/><path class="cls-2" d="M31.58,54.45h-.27a.89.89,0,0,1-.88-.88v-13a.89.89,0,0,1,.88-.88h.27a.89.89,0,0,1,.88.88v13A.89.89,0,0,1,31.58,54.45Zm-.27-14.29a.41.41,0,0,0-.4.41v13a.41.41,0,0,0,.4.41h.27a.42.42,0,0,0,.41-.41v-13a.42.42,0,0,0-.41-.41Z" transform="translate(-11.74 -1)"/><path class="cls-2" d="M47.43,40.78,43,53.78a.64.64,0,0,1-.61.43h-.71a.65.65,0,0,1-.62-.45l-4.11-13a.65.65,0,0,1,.62-.84h.32a.64.64,0,0,1,.62.45l2.06,6.71c.6,1.93,1.12,3.73,1.5,5.4h0a54.9,54.9,0,0,1,1.6-5.4l2.23-6.74a.66.66,0,0,1,.61-.44h.3A.64.64,0,0,1,47.43,40.78Z" transform="translate(-11.74 -1)"/><path class="cls-2" d="M42.35,54.45h-.71a.89.89,0,0,1-.85-.62l-4.1-13a.87.87,0,0,1,.84-1.15h.32a.87.87,0,0,1,.85.62l2,6.71c.44,1.39.92,3,1.31,4.56.32-1.26.77-2.74,1.39-4.57l2.23-6.74a.88.88,0,0,1,.84-.6h.3a.86.86,0,0,1,.72.37.88.88,0,0,1,.12.8l-4.47,13A.88.88,0,0,1,42.35,54.45ZM37.53,40.18a.4.4,0,0,0-.33.17.41.41,0,0,0-.06.37l4.11,13a.41.41,0,0,0,.39.29h.71a.42.42,0,0,0,.39-.28l4.47-13h0a.4.4,0,0,0-.06-.37.41.41,0,0,0-.33-.18h-.3a.41.41,0,0,0-.38.28L43.9,47.18a55.37,55.37,0,0,0-1.59,5.38.24.24,0,0,1-.23.19h0a.26.26,0,0,1-.24-.19c-.4-1.82-1-3.74-1.49-5.38l-2-6.71a.42.42,0,0,0-.4-.29Z" transform="translate(-11.74 -1)"/><path class="cls-2" d="M57.7,54.21H51.45a.64.64,0,0,1-.64-.64v-13a.64.64,0,0,1,.64-.64h5.93a.65.65,0,0,1,.65.64v0a.65.65,0,0,1-.65.65H53a.65.65,0,0,0-.65.65v3.54a.65.65,0,0,0,.65.65h4a.65.65,0,0,1,.65.64h0a.65.65,0,0,1-.65.65H53a.65.65,0,0,0-.65.65v4.23a.65.65,0,0,0,.65.65H57.7a.64.64,0,0,1,.64.65v0A.64.64,0,0,1,57.7,54.21Z" transform="translate(-11.74 -1)"/><path class="cls-2" d="M57.7,54.45H51.45a.89.89,0,0,1-.88-.88v-13a.89.89,0,0,1,.88-.88h5.93a.9.9,0,0,1,0,1.79H53a.41.41,0,0,0-.41.41v3.54a.42.42,0,0,0,.41.41h4a.89.89,0,1,1,0,1.77H53a.41.41,0,0,0-.41.41v4.23a.41.41,0,0,0,.41.41H57.7a.9.9,0,0,1,0,1.79ZM51.45,40.16a.41.41,0,0,0-.4.41v13a.41.41,0,0,0,.4.41H57.7a.42.42,0,0,0,0-.84H53a.88.88,0,0,1-.88-.89V48a.88.88,0,0,1,.88-.89h4a.41.41,0,0,0,.41-.41.41.41,0,0,0-.41-.41H53a.87.87,0,0,1-.88-.88V41.89A.88.88,0,0,1,53,41h4.37a.41.41,0,0,0,.41-.41.42.42,0,0,0-.41-.43Z" transform="translate(-11.74 -1)"/></svg>