<svg id="图层_1" data-name="图层 1" xmlns="http://www.w3.org/2000/svg" viewBox="0 0 60.22 60"><defs><style>.cls-1{fill:#fff;}.cls-2{fill:#666;}</style></defs><rect class="cls-1" x="0.93" y="0.93" width="46.51" height="58.14" rx="1.66"/><path class="cls-2" d="M54.47,61H11.68a2.79,2.79,0,0,1-2.79-2.79V3.79A2.79,2.79,0,0,1,11.68,1H54.47a2.79,2.79,0,0,1,2.79,2.79V58.21A2.79,2.79,0,0,1,54.47,61ZM11.68,2.86a.93.93,0,0,0-.93.93V58.21a.93.93,0,0,0,.93.93H54.47a.93.93,0,0,0,.93-.93V3.79a.93.93,0,0,0-.93-.93Z" transform="translate(-8.89 -1)"/><path class="cls-2" d="M49.59,52.74h-33a1.86,1.86,0,0,1-1.86-1.86V8.56A1.86,1.86,0,0,1,16.56,6.7h33a1.86,1.86,0,0,1,1.86,1.86V50.88A1.86,1.86,0,0,1,49.59,52.74Zm-33-44.18V50.88h33V8.56Z" transform="translate(-8.89 -1)"/><circle class="cls-2" cx="24.19" cy="55" r="1.86"/><path class="cls-2" d="M27,25.67H20.53a.93.93,0,0,1,0-1.86H27a.93.93,0,0,1,0,1.86Z" transform="translate(-8.89 -1)"/><path class="cls-2" d="M45.62,25.67H31.22a.93.93,0,0,1,0-1.86h14.4a.93.93,0,0,1,0,1.86Z" transform="translate(-8.89 -1)"/><path class="cls-2" d="M45.62,15.75H20.53a.93.93,0,0,1,0-1.86H45.62a.93.93,0,0,1,0,1.86Z" transform="translate(-8.89 -1)"/><path class="cls-2" d="M45.62,20.71H20.53a.93.93,0,0,1,0-1.86H45.62a.93.93,0,0,1,0,1.86Z" transform="translate(-8.89 -1)"/><path class="cls-2" d="M45.62,30.63H20.53a.93.93,0,0,1,0-1.86H45.62a.93.93,0,0,1,0,1.86Z" transform="translate(-8.89 -1)"/><path class="cls-2" d="M45.62,35.59h-10a.93.93,0,0,1,0-1.86h10a.93.93,0,0,1,0,1.86Z" transform="translate(-8.89 -1)"/><path class="cls-2" d="M45.62,40.55h-10a.93.93,0,0,1,0-1.86h10a.93.93,0,0,1,0,1.86Z" transform="translate(-8.89 -1)"/><path class="cls-2" d="M45.62,45.51h-10a.93.93,0,0,1,0-1.86h10a.93.93,0,0,1,0,1.86Z" transform="translate(-8.89 -1)"/><path class="cls-2" d="M30,45.56H21.2a1.4,1.4,0,0,1-1.4-1.4V35.32a1.4,1.4,0,0,1,1.4-1.39H30a1.39,1.39,0,0,1,1.39,1.39v8.84A1.4,1.4,0,0,1,30,45.56ZM21.67,43.7h7.9V35.79h-7.9Z" transform="translate(-8.89 -1)"/><path class="cls-1" d="M68.18,47.68l-2.56,6.46-2.56-6.46v-37a2.56,2.56,0,0,1,2.56-2.56h0a2.56,2.56,0,0,1,2.56,2.56Z" transform="translate(-8.89 -1)"/><path class="cls-2" d="M65.62,55.07a.92.92,0,0,1-.86-.59L62.2,48a1,1,0,0,1-.07-.34v-37a3.49,3.49,0,1,1,7,0v37A.8.8,0,0,1,69,48l-2.55,6.46A.93.93,0,0,1,65.62,55.07ZM64,47.5l1.63,4.11,1.63-4.11V10.7a1.63,1.63,0,1,0-3.26,0Zm4.19.18Z" transform="translate(-8.89 -1)"/></svg>