<?xml version="1.0" encoding="utf-8"?>
<!-- Generator: Adobe Illustrator 23.0.1, SVG Export Plug-In . SVG Version: 6.00 Build 0)  -->
<svg version="1.1" xmlns="http://www.w3.org/2000/svg" xmlns:xlink="http://www.w3.org/1999/xlink" x="0px" y="0px" width="52px"
	 height="62px" viewBox="0 0 52 62" style="enable-background:new 0 0 52 62;" xml:space="preserve">
<style type="text/css">
	.st0{fill:url(#SVGID_1_);}
	.st1{fill:#FFFFFF;}
	.st2{fill:#DBDBDB;}
	.st3{fill:url(#SVGID_2_);}
	.st4{fill:url(#SVGID_5_);}
	.st5{fill:url(#SVGID_6_);}
	.st6{fill:url(#SVGID_7_);}
	.st7{opacity:0.4;}
	.st8{fill:#A2A2A2;}
	.st9{fill:none;stroke:#000000;stroke-miterlimit:10;}
	.st10{fill:none;stroke:url(#SVGID_14_);stroke-miterlimit:10;}
	.st11{fill:#000004;}
	.st12{fill:none;stroke:url(#SVGID_17_);stroke-miterlimit:10;}
	.st13{fill:#231815;}
	.st14{clip-path:url(#SVGID_19_);}
	.st15{fill:url(#SVGID_22_);}
	.st16{fill:#FFFFFF;stroke:#000000;stroke-width:2;stroke-linecap:round;stroke-linejoin:round;stroke-miterlimit:10;}
	.st17{opacity:0.4;fill:#1D2083;}
	.st18{fill:url(#SVGID_23_);}
	.st19{fill:url(#SVGID_24_);}
	.st20{fill:#487DC5;}
	.st21{fill:#B9B9B9;}
	.st22{fill:none;stroke:#B9B9B9;stroke-linecap:round;stroke-miterlimit:10;}
	.st23{fill:none;stroke:#000000;stroke-width:2;stroke-miterlimit:10;}
	.st24{clip-path:url(#SVGID_32_);}
	.st25{clip-path:url(#SVGID_34_);fill:#040000;}
	.st26{clip-path:url(#SVGID_34_);}
	.st27{clip-path:url(#SVGID_36_);}
	.st28{clip-path:url(#SVGID_40_);fill:#B5B5B5;}
	.st29{clip-path:url(#SVGID_40_);fill:#FFFFFF;}
	.st30{clip-path:url(#SVGID_42_);}
	.st31{clip-path:url(#SVGID_44_);fill:#040000;}
	.st32{clip-path:url(#SVGID_44_);}
	.st33{clip-path:url(#SVGID_46_);}
	.st34{clip-path:url(#SVGID_50_);fill:#B5B5B5;}
	.st35{clip-path:url(#SVGID_50_);fill:#FFFFFF;}
	.st36{clip-path:url(#SVGID_52_);}
	.st37{clip-path:url(#SVGID_54_);fill:#040000;}
	.st38{clip-path:url(#SVGID_54_);}
	.st39{clip-path:url(#SVGID_56_);}
	.st40{clip-path:url(#SVGID_60_);fill:#B5B5B5;}
	.st41{clip-path:url(#SVGID_60_);fill:#FFFFFF;}
	.st42{clip-path:url(#SVGID_62_);}
	.st43{clip-path:url(#SVGID_64_);fill:#040000;}
	.st44{clip-path:url(#SVGID_64_);}
	.st45{clip-path:url(#SVGID_66_);fill:url(#SVGID_67_);}
	.st46{clip-path:url(#SVGID_71_);}
	.st47{clip-path:url(#SVGID_73_);fill:#040000;}
	.st48{clip-path:url(#SVGID_73_);}
	.st49{clip-path:url(#SVGID_75_);fill:url(#SVGID_76_);}
	.st50{clip-path:url(#SVGID_80_);}
	.st51{clip-path:url(#SVGID_82_);fill:#040000;}
	.st52{clip-path:url(#SVGID_82_);}
	.st53{clip-path:url(#SVGID_84_);fill:url(#SVGID_85_);}
	.st54{clip-path:url(#SVGID_89_);}
	.st55{clip-path:url(#SVGID_91_);fill:#040000;}
	.st56{clip-path:url(#SVGID_91_);}
	.st57{clip-path:url(#SVGID_93_);fill:url(#SVGID_94_);}
	.st58{clip-path:url(#SVGID_98_);}
	.st59{clip-path:url(#SVGID_100_);fill:#040000;}
	.st60{clip-path:url(#SVGID_100_);}
	.st61{clip-path:url(#SVGID_102_);}
	.st62{clip-path:url(#SVGID_106_);fill:#B5B5B5;}
	.st63{clip-path:url(#SVGID_106_);fill:#FFFFFF;}
	.st64{clip-path:url(#SVGID_108_);}
	.st65{clip-path:url(#SVGID_110_);fill:#040000;}
	.st66{clip-path:url(#SVGID_110_);}
	.st67{clip-path:url(#SVGID_112_);fill:url(#SVGID_113_);}
	.st68{clip-path:url(#SVGID_117_);}
	.st69{clip-path:url(#SVGID_119_);fill:#040000;}
	.st70{clip-path:url(#SVGID_119_);}
	.st71{clip-path:url(#SVGID_121_);fill:url(#SVGID_122_);}
	.st72{clip-path:url(#SVGID_126_);}
	.st73{clip-path:url(#SVGID_128_);fill:#040000;}
	.st74{clip-path:url(#SVGID_128_);}
	.st75{clip-path:url(#SVGID_130_);fill:url(#SVGID_131_);}
	.st76{clip-path:url(#SVGID_135_);}
	.st77{clip-path:url(#SVGID_137_);fill:#040000;}
	.st78{clip-path:url(#SVGID_137_);}
	.st79{clip-path:url(#SVGID_139_);fill:url(#SVGID_140_);}
	.st80{clip-path:url(#SVGID_144_);}
	.st81{clip-path:url(#SVGID_146_);fill:#040000;}
	.st82{clip-path:url(#SVGID_146_);}
	.st83{clip-path:url(#SVGID_148_);}
	.st84{clip-path:url(#SVGID_152_);fill:#B5B5B5;}
	.st85{clip-path:url(#SVGID_152_);fill:#FFFFFF;}
	.st86{fill:#333333;}
	.st87{clip-path:url(#SVGID_158_);}
	.st88{clip-path:url(#SVGID_160_);fill:#040000;}
	.st89{clip-path:url(#SVGID_160_);}
	.st90{clip-path:url(#SVGID_162_);fill:url(#SVGID_163_);}
	.st91{clip-path:url(#SVGID_167_);}
	.st92{clip-path:url(#SVGID_169_);fill:#040000;}
	.st93{clip-path:url(#SVGID_169_);}
	.st94{clip-path:url(#SVGID_171_);}
	.st95{clip-path:url(#SVGID_175_);fill:#B5B5B5;}
	.st96{clip-path:url(#SVGID_175_);fill:#FFFFFF;}
	.st97{clip-path:url(#SVGID_177_);}
	.st98{clip-path:url(#SVGID_179_);fill:#040000;}
	.st99{clip-path:url(#SVGID_179_);}
	.st100{clip-path:url(#SVGID_181_);}
	.st101{clip-path:url(#SVGID_185_);fill:#B5B5B5;}
	.st102{clip-path:url(#SVGID_185_);fill:#FFFFFF;}
	.st103{clip-path:url(#SVGID_187_);}
	.st104{clip-path:url(#SVGID_189_);fill:#040000;}
	.st105{clip-path:url(#SVGID_189_);}
	.st106{clip-path:url(#SVGID_191_);}
	.st107{clip-path:url(#SVGID_195_);fill:#B5B5B5;}
	.st108{clip-path:url(#SVGID_195_);fill:#FFFFFF;}
	.st109{opacity:0.5;}
	.st110{fill:#868686;}
	.st111{clip-path:url(#SVGID_209_);}
	.st112{clip-path:url(#SVGID_211_);fill:#040000;}
	.st113{clip-path:url(#SVGID_211_);}
	.st114{clip-path:url(#SVGID_213_);fill:url(#SVGID_214_);}
	.st115{clip-path:url(#SVGID_218_);}
	.st116{clip-path:url(#SVGID_220_);fill:#040000;}
	.st117{clip-path:url(#SVGID_220_);}
	.st118{clip-path:url(#SVGID_222_);}
	.st119{clip-path:url(#SVGID_226_);fill:#B5B5B5;}
	.st120{clip-path:url(#SVGID_226_);fill:#FFFFFF;}
	.st121{fill:url(#SVGID_227_);}
	.st122{fill:url(#SVGID_228_);}
	.st123{fill:none;stroke:#333333;stroke-miterlimit:10;}
	.st124{clip-path:url(#SVGID_230_);}
	.st125{fill:none;stroke:#DBDBDB;stroke-linecap:round;stroke-miterlimit:10;}
	.st126{fill:url(#SVGID_231_);}
	.st127{clip-path:url(#SVGID_233_);}
	.st128{fill:url(#SVGID_234_);}
	.st129{clip-path:url(#SVGID_236_);}
	.st130{fill:url(#SVGID_237_);}
	.st131{clip-path:url(#SVGID_239_);}
	.st132{fill:url(#SVGID_240_);}
	.st133{clip-path:url(#SVGID_242_);}
	.st134{fill:url(#SVGID_243_);}
	.st135{clip-path:url(#SVGID_245_);}
	.st136{clip-path:url(#SVGID_251_);fill:none;}
	.st137{clip-path:url(#SVGID_253_);}
	.st138{clip-path:url(#SVGID_255_);fill:#040000;}
	.st139{clip-path:url(#SVGID_255_);}
	.st140{clip-path:url(#SVGID_257_);}
	.st141{clip-path:url(#SVGID_261_);fill:#B5B5B5;}
	.st142{clip-path:url(#SVGID_261_);fill:#FFFFFF;}
	.st143{clip-path:url(#SVGID_263_);}
	.st144{clip-path:url(#SVGID_265_);fill:#040000;}
	.st145{clip-path:url(#SVGID_265_);}
	.st146{clip-path:url(#SVGID_267_);fill:url(#SVGID_268_);}
	.st147{fill:#B50000;}
	.st148{fill:none;stroke:#666666;stroke-miterlimit:10;}
	.st149{clip-path:url(#SVGID_286_);}
	.st150{clip-path:url(#SVGID_288_);fill:#040000;}
	.st151{clip-path:url(#SVGID_288_);}
	.st152{clip-path:url(#SVGID_290_);}
	.st153{clip-path:url(#SVGID_294_);fill:#B5B5B5;}
	.st154{clip-path:url(#SVGID_294_);fill:#FFFFFF;}
	.st155{opacity:0.7;fill:#FFFFFF;}
	.st156{fill:none;}
	.st157{clip-path:url(#SVGID_304_);}
	.st158{fill:none;stroke:#B9B9B9;stroke-miterlimit:10;}
	.st159{clip-path:url(#SVGID_308_);}
	.st160{clip-path:url(#SVGID_310_);fill:#040000;}
	.st161{clip-path:url(#SVGID_310_);}
	.st162{clip-path:url(#SVGID_312_);}
	.st163{clip-path:url(#SVGID_316_);fill:#B5B5B5;}
	.st164{clip-path:url(#SVGID_316_);fill:#FFFFFF;}
	.st165{fill:#111111;}
	.st166{clip-path:url(#SVGID_318_);}
	.st167{clip-path:url(#SVGID_320_);fill:#040000;}
	.st168{clip-path:url(#SVGID_320_);}
	.st169{clip-path:url(#SVGID_322_);fill:url(#SVGID_323_);}
	.st170{clip-path:url(#SVGID_327_);fill:url(#SVGID_328_);}
	.st171{clip-path:url(#SVGID_330_);}
	.st172{fill:url(#SVGID_333_);}
	.st173{clip-path:url(#SVGID_335_);fill:url(#SVGID_336_);}
	.st174{clip-path:url(#SVGID_338_);}
	.st175{clip-path:url(#SVGID_340_);fill:#040000;}
	.st176{clip-path:url(#SVGID_340_);}
	.st177{clip-path:url(#SVGID_342_);}
	.st178{clip-path:url(#SVGID_346_);fill:#B5B5B5;}
	.st179{clip-path:url(#SVGID_346_);fill:#FFFFFF;}
	.st180{clip-path:url(#SVGID_348_);}
	.st181{clip-path:url(#SVGID_350_);fill:#040000;}
	.st182{clip-path:url(#SVGID_350_);}
	.st183{clip-path:url(#SVGID_352_);fill:url(#SVGID_353_);}
	.st184{fill:#666666;}
	.st185{fill:url(#SVGID_356_);}
	.st186{fill:none;stroke:#000000;stroke-width:3;stroke-linecap:round;stroke-linejoin:round;stroke-miterlimit:10;}
	.st187{fill:#FFFFFF;stroke:#000000;stroke-width:3;stroke-linecap:round;stroke-linejoin:round;stroke-miterlimit:10;}
	.st188{fill:none;stroke:#000000;stroke-width:1.5655;stroke-linecap:round;stroke-linejoin:round;stroke-miterlimit:10;}
	.st189{fill:#FFFFFF;stroke:#000000;stroke-width:1.5655;stroke-linecap:round;stroke-linejoin:round;stroke-miterlimit:10;}
	.st190{fill:none;stroke:#000000;stroke-width:2;stroke-linecap:round;stroke-linejoin:round;stroke-miterlimit:10;}
	.st191{fill:#FFFFFF;stroke:#000000;stroke-width:2;stroke-miterlimit:10;}
	.st192{fill:#FFFFFF;stroke:#000000;stroke-width:2;stroke-linejoin:round;stroke-miterlimit:10;}
	.st193{fill:none;stroke:#000000;stroke-width:2;stroke-linejoin:round;stroke-miterlimit:10;}
	.st194{opacity:0.4;fill:#FFFF00;}
	.st195{filter:url(#Adobe_OpacityMaskFilter);}
	.st196{fill:none;stroke:#666666;stroke-width:2;stroke-miterlimit:10;}
	.st197{fill:#FFFFFF;stroke:#666666;stroke-width:2;stroke-miterlimit:10;}
	.st198{fill:url(#SVGID_359_);}
	.st199{fill:url(#SVGID_360_);}
	.st200{fill:url(#SVGID_363_);}
	.st201{fill:url(#SVGID_364_);}
	.st202{fill:url(#SVGID_365_);}
	.st203{fill:url(#SVGID_368_);}
	.st204{fill:url(#SVGID_369_);}
	.st205{fill:url(#SVGID_370_);}
	.st206{fill:url(#SVGID_371_);}
	.st207{fill:url(#SVGID_372_);}
	.st208{fill:url(#SVGID_373_);}
	.st209{fill:url(#SVGID_374_);}
	.st210{fill:url(#SVGID_375_);}
	.st211{fill:url(#SVGID_376_);}
	.st212{fill:url(#SVGID_377_);}
	.st213{fill:url(#SVGID_378_);}
	.st214{fill:url(#SVGID_379_);}
	.st215{fill:url(#SVGID_380_);}
	.st216{fill:url(#SVGID_381_);}
	.st217{fill:url(#SVGID_382_);}
	.st218{fill:url(#SVGID_383_);}
	.st219{fill:url(#SVGID_384_);}
	.st220{fill:url(#SVGID_385_);}
	.st221{fill:none;stroke:#FFFF00;stroke-width:14;stroke-miterlimit:10;}
	.st222{fill:#FFFF00;}
	.st223{opacity:0.2;fill:#FFFF00;}
	.st224{opacity:0.5;fill:#0000FF;}
	.st225{opacity:0.5;fill:none;stroke:#0000FF;stroke-width:5;stroke-miterlimit:10;}
	.st226{fill:none;stroke:#0000FF;stroke-miterlimit:10;}
	.st227{fill:none;stroke:#FF00FF;stroke-width:6;stroke-miterlimit:10;}
	.st228{fill:#FF00FF;}
	.st229{fill:url(#SVGID_386_);}
	.st230{fill:url(#SVGID_387_);}
	.st231{fill:url(#SVGID_388_);}
	.st232{fill:url(#SVGID_389_);}
	.st233{fill:url(#SVGID_390_);}
	.st234{clip-path:url(#SVGID_392_);}
	.st235{clip-path:url(#SVGID_394_);fill:#040000;}
	.st236{clip-path:url(#SVGID_394_);}
	.st237{clip-path:url(#SVGID_396_);}
	.st238{clip-path:url(#SVGID_400_);fill:#B5B5B5;}
	.st239{clip-path:url(#SVGID_400_);fill:#FFFFFF;}
	.st240{fill:url(#SVGID_401_);}
	.st241{fill:url(#SVGID_402_);}
	.st242{fill:#FFFFFF;stroke:#231815;stroke-width:2.4562;stroke-miterlimit:10;}
	.st243{fill:none;stroke:#231815;stroke-width:2.4562;stroke-miterlimit:10;}
	.st244{fill:none;stroke:#231815;stroke-width:1.9256;stroke-miterlimit:10;}
	.st245{fill:none;stroke:#000000;stroke-width:1.5;stroke-linejoin:round;stroke-miterlimit:10;}
	.st246{fill:none;stroke:#000000;stroke-width:4;stroke-linecap:round;stroke-miterlimit:10;}
	.st247{fill:#FFFFFF;stroke:#000000;stroke-width:2.0183;stroke-linejoin:round;stroke-miterlimit:10;}
	.st248{fill:none;stroke:#000000;stroke-width:1.5;stroke-linecap:round;stroke-miterlimit:10;}
	.st249{fill:none;stroke:#000000;stroke-width:1.1218;stroke-miterlimit:10;}
	.st250{fill:none;stroke:#000000;stroke-width:1.1218;stroke-linecap:round;stroke-miterlimit:10;}
	.st251{fill:#CCCCCC;}
	.st252{fill:none;stroke:#000000;stroke-width:1.5;stroke-miterlimit:10;}
	.st253{fill:url(#SVGID_405_);}
	.st254{clip-path:url(#SVGID_407_);}
	.st255{fill:#C2C2C2;}
	.st256{fill:url(#SVGID_410_);}
	.st257{clip-path:url(#SVGID_412_);}
	.st258{fill:#E5E5E5;}
	.st259{fill:url(#SVGID_413_);}
	.st260{clip-path:url(#SVGID_415_);fill:#FFFFFF;}
	.st261{clip-path:url(#SVGID_415_);}
	.st262{opacity:0.3;fill:#DBDBDB;}
	.st263{clip-path:url(#SVGID_417_);}
	.st264{clip-path:url(#SVGID_423_);}
	.st265{clip-path:url(#SVGID_427_);}
	.st266{clip-path:url(#SVGID_431_);}
	.st267{clip-path:url(#SVGID_435_);}
	.st268{fill:#C4C4C4;}
	.st269{opacity:0.3;fill:#E0E0E0;}
	.st270{fill:#E0E0E0;}
	.st271{fill:none;stroke:#666666;stroke-width:2;stroke-linecap:round;stroke-linejoin:round;stroke-miterlimit:10;}
	.st272{fill:none;stroke:#666666;stroke-width:2;stroke-linejoin:round;stroke-miterlimit:10;}
	.st273{opacity:0.3;fill:url(#SVGID_450_);}
	.st274{fill:none;stroke:url(#SVGID_451_);stroke-miterlimit:10;}
	.st275{display:none;}
	.st276{display:inline;opacity:0.7;}
	.st277{display:inline;}
	.st278{display:inline;fill:url(#SVGID_458_);}
	.st279{display:inline;opacity:0.95;fill:#FFFFFF;}
	.st280{opacity:0.5;fill:#FFFF00;}
	.st281{display:none;opacity:0.5;fill:#FFFF00;}
	.st282{opacity:0.5;fill:#D10D18;}
	.st283{opacity:0.4;fill:#E10012;}
	.st284{display:inline;fill:#FFFFFF;}
	.st285{display:inline;fill:#818181;}
	.st286{display:inline;fill:#DBDBDB;}
	.st287{display:inline;fill:#B9B9B9;}
	.st288{display:inline;fill:#A2A2A2;}
	.st289{display:inline;fill:url(#SVGID_459_);}
	.st290{display:inline;fill:url(#SVGID_460_);}
	.st291{fill:none;stroke:url(#SVGID_461_);stroke-miterlimit:10;}
	.st292{fill:url(#SVGID_462_);}
	.st293{fill:none;stroke:#FFFFFF;stroke-miterlimit:10;}
	.st294{display:inline;fill:#333333;}
	.st295{fill:none;stroke:url(#SVGID_463_);stroke-miterlimit:10;}
	.st296{fill:#A1A1A1;}
	.st297{display:inline;opacity:0.5;}
	.st298{display:inline;fill:none;stroke:#000000;stroke-miterlimit:10;}
	.st299{display:inline;fill:#B50000;}
</style>
<g id="_x31_">
</g>
<g id="_x32_">
	<g>
		<g>
			<path class="st1" d="M4.365,59.639c-1.546,0-2.805-1.258-2.805-2.804V4.365c0-1.546,1.259-2.804,2.805-2.804h26.86
				c1.547,0,2.806,1.258,2.806,2.804v52.469c0,1.546-1.259,2.804-2.806,2.804H4.365z"/>
			<path d="M31.226,2.122c1.237,0,2.244,1.006,2.244,2.244v52.469c0,1.237-1.007,2.244-2.244,2.244H4.365
				c-1.237,0-2.244-1.006-2.244-2.244V4.365c0-1.237,1.007-2.244,2.244-2.244H31.226 M31.226,1H4.365C2.514,1,1,2.514,1,4.365
				v52.469C1,58.685,2.514,60.2,4.365,60.2h26.86c1.851,0,3.365-1.514,3.365-3.365V4.365C34.591,2.514,33.077,1,31.226,1L31.226,1z"
				/>
		</g>
		<line class="st249" x1="1.842" y1="53.742" x2="33.632" y2="53.742"/>
		<line class="st250" x1="15.026" y1="56.449" x2="20.448" y2="56.449"/>
		<line class="st249" x1="1.842" y1="7.08" x2="33.632" y2="7.08"/>
		<g>
			<rect x="2.038" y="7.352" width="31.515" height="46.46"/>
		</g>
		<g>
			<polygon class="st251" points="2.694,17.503 11.988,8.208 9.99,8.208 2.694,15.504 			"/>
			<polygon class="st251" points="2.694,19.366 2.694,23.604 18.331,8.208 14.026,8.208 			"/>
		</g>
		<g>
			<polygon class="st251" points="32.788,43.304 23.494,52.598 25.492,52.598 32.788,45.303 			"/>
			<polygon class="st251" points="32.788,41.441 32.788,37.202 17.151,52.598 21.456,52.598 			"/>
		</g>
		<g>
			<path class="st1" d="M48.971,38.585c0.758,1.46,0.945,3.142,0.523,4.734c-0.451,1.704-1.539,3.13-3.063,4.017l0,0l-2.825,1.642
				c-1.526,0.888-3.307,1.127-5.014,0.675l-13.389-3.545c-0.392-0.104-0.626-0.506-0.522-0.898c0.229-0.864,1.07-1.436,1.966-1.332
				l7.418,0.766c0.275,0.029,0.541-0.1,0.693-0.332c0.149-0.231,0.157-0.528,0.018-0.767l-9.38-15.851
				c-0.371-0.638-0.154-1.457,0.495-1.834c0.319-0.184,0.684-0.223,1.015-0.135c0.331,0.088,0.628,0.302,0.814,0.621l6.77,11.361
				c0.204,0.35,0.654,0.469,1.004,0.266c0.175-0.103,0.292-0.266,0.34-0.448c0.048-0.182,0.027-0.382-0.075-0.556L33.625,33.3
				c-0.371-0.638-0.154-1.457,0.495-1.834c0.636-0.37,1.458-0.152,1.828,0.484l2.133,3.669c0.204,0.35,0.654,0.469,1.004,0.266
				c0.175-0.103,0.292-0.266,0.34-0.448c0.048-0.182,0.027-0.382-0.07-0.549l-1.089-1.873c-0.371-0.638-0.154-1.457,0.495-1.834
				c0.636-0.369,1.458-0.152,1.828,0.484l1.092,1.879l0.001,0.002l0.002,0c0.001,0,0.001,0.002,0.001,0.002
				c0.209,0.336,0.649,0.448,0.993,0.248c0.35-0.204,0.469-0.654,0.266-1.004l-0.045-0.077c-0.179-0.309-0.228-0.67-0.137-1.015
				c0.091-0.345,0.311-0.634,0.63-0.82c0.637-0.369,1.456-0.151,1.812,0.454L48.971,38.585z M46.431,47.335"/>
			<path d="M50.273,37.907l-3.786-7.281c-0.777-1.336-2.497-1.793-3.846-1.009c-0.427,0.248-0.764,0.592-0.998,0.992
				c-0.847-1.093-2.401-1.419-3.638-0.7c-0.426,0.249-0.763,0.593-0.999,0.991c-0.847-1.093-2.4-1.419-3.637-0.698
				c-0.418,0.243-0.751,0.579-0.985,0.966l-3.396-5.558c-0.777-1.336-2.497-1.793-3.846-1.009c-1.338,0.777-1.793,2.497-1.015,3.835
				l8.654,14.602l-5.972-0.618c-1.608-0.189-3.133,0.848-3.548,2.414c-0.311,1.174,0.392,2.383,1.566,2.694l13.389,3.545
				c2.086,0.552,4.262,0.259,6.128-0.826l2.825-1.642c1.864-1.082,3.194-2.828,3.745-4.911
				C51.429,41.749,51.201,39.694,50.273,37.907L50.273,37.907z M48.971,38.585c0.758,1.46,0.945,3.142,0.523,4.734
				c-0.451,1.704-1.539,3.13-3.063,4.017l0,0l-2.825,1.642c-1.526,0.888-3.307,1.127-5.014,0.675l-13.389-3.545
				c-0.392-0.104-0.626-0.506-0.522-0.898c0.229-0.864,1.07-1.436,1.966-1.332l7.418,0.766c0.275,0.029,0.541-0.1,0.693-0.332
				c0.149-0.231,0.157-0.528,0.018-0.767l-9.38-15.851c-0.371-0.638-0.154-1.457,0.495-1.834c0.319-0.184,0.684-0.223,1.015-0.135
				c0.331,0.088,0.628,0.302,0.814,0.621l6.77,11.361c0.204,0.35,0.654,0.469,1.004,0.266c0.175-0.103,0.292-0.266,0.34-0.448
				c0.048-0.182,0.027-0.382-0.075-0.556L33.625,33.3c-0.371-0.638-0.154-1.457,0.495-1.834c0.636-0.37,1.458-0.152,1.828,0.484
				l2.133,3.669c0.204,0.35,0.654,0.469,1.004,0.266c0.175-0.103,0.292-0.266,0.34-0.448c0.048-0.182,0.027-0.382-0.07-0.549
				l-1.089-1.873c-0.371-0.638-0.154-1.457,0.495-1.834c0.636-0.369,1.458-0.152,1.828,0.484l1.092,1.879l0.001,0.002l0.002,0
				c0.001,0,0.001,0.002,0.001,0.002c0.209,0.336,0.649,0.448,0.993,0.248c0.35-0.204,0.469-0.654,0.266-1.004l-0.045-0.077
				c-0.179-0.309-0.228-0.67-0.137-1.015c0.091-0.345,0.311-0.634,0.63-0.82c0.637-0.369,1.456-0.151,1.812,0.454 M46.431,47.335"/>
		</g>
	</g>
</g>
<g id="レイヤー_9">
</g>
<g id="TIG利用">
</g>
<g id="menu" class="st275">
</g>
<g id="モーダル" class="st275">
</g>
<g id="修正箇所0131">
</g>
<g id="designguide" class="st275">
</g>
<g id="mouseover" class="st275">
</g>
</svg>
